<mxfile host="app.diagrams.net" modified="2021-12-02T15:00:08.731Z" agent="5.0 (Windows NT 10.0; Win64; x64) AppleWebKit/537.36 (KHTML, like Gecko) Chrome/96.0.4664.45 Safari/537.36" etag="IaD_p-7tGgpp2J91mcBY" version="15.7.4" type="github">
  <diagram id="GGUj5eIi6p5LC9IgzSBA" name="Page-1">
    <mxGraphModel dx="2131" dy="529" grid="1" gridSize="10" guides="1" tooltips="1" connect="1" arrows="1" fold="1" page="1" pageScale="1" pageWidth="827" pageHeight="1169" math="0" shadow="0">
      <root>
        <mxCell id="0" />
        <mxCell id="1" parent="0" />
        <mxCell id="laPyxiT6xSJ42g8x2N14-14" value="Thông số kỹ thuật" style="shape=table;startSize=22;container=1;collapsible=1;childLayout=tableLayout;fixedRows=1;rowLines=0;fontStyle=1;align=center;resizeLast=1;fillColor=#dae8fc;strokeColor=#6c8ebf;" parent="1" vertex="1">
          <mxGeometry x="-285" y="330" width="210" height="690" as="geometry">
            <mxRectangle x="-180" y="408" width="140" height="22" as="alternateBounds" />
          </mxGeometry>
        </mxCell>
        <mxCell id="laPyxiT6xSJ42g8x2N14-18" value="" style="shape=partialRectangle;collapsible=0;dropTarget=0;pointerEvents=0;fillColor=none;top=0;left=0;bottom=1;right=0;points=[[0,0.5],[1,0.5]];portConstraint=eastwest;" parent="laPyxiT6xSJ42g8x2N14-14" vertex="1">
          <mxGeometry y="22" width="210" height="30" as="geometry" />
        </mxCell>
        <mxCell id="laPyxiT6xSJ42g8x2N14-19" value="PK" style="shape=partialRectangle;connectable=0;fillColor=none;top=0;left=0;bottom=0;right=0;fontStyle=1;overflow=hidden;" parent="laPyxiT6xSJ42g8x2N14-18" vertex="1">
          <mxGeometry width="50" height="30" as="geometry">
            <mxRectangle width="50" height="30" as="alternateBounds" />
          </mxGeometry>
        </mxCell>
        <mxCell id="laPyxiT6xSJ42g8x2N14-20" value="Mã Thông số" style="shape=partialRectangle;connectable=0;fillColor=none;top=0;left=0;bottom=0;right=0;align=left;spacingLeft=6;fontStyle=5;overflow=hidden;" parent="laPyxiT6xSJ42g8x2N14-18" vertex="1">
          <mxGeometry x="50" width="160" height="30" as="geometry">
            <mxRectangle width="160" height="30" as="alternateBounds" />
          </mxGeometry>
        </mxCell>
        <mxCell id="laPyxiT6xSJ42g8x2N14-21" value="" style="shape=partialRectangle;collapsible=0;dropTarget=0;pointerEvents=0;fillColor=none;top=0;left=0;bottom=0;right=0;points=[[0,0.5],[1,0.5]];portConstraint=eastwest;" parent="laPyxiT6xSJ42g8x2N14-14" vertex="1">
          <mxGeometry y="52" width="210" height="30" as="geometry" />
        </mxCell>
        <mxCell id="laPyxiT6xSJ42g8x2N14-22" value="FK" style="shape=partialRectangle;connectable=0;fillColor=none;top=0;left=0;bottom=0;right=0;editable=1;overflow=hidden;" parent="laPyxiT6xSJ42g8x2N14-21" vertex="1">
          <mxGeometry width="50" height="30" as="geometry">
            <mxRectangle width="50" height="30" as="alternateBounds" />
          </mxGeometry>
        </mxCell>
        <mxCell id="laPyxiT6xSJ42g8x2N14-23" value="Mã sản phẩm" style="shape=partialRectangle;connectable=0;fillColor=none;top=0;left=0;bottom=0;right=0;align=left;spacingLeft=6;overflow=hidden;" parent="laPyxiT6xSJ42g8x2N14-21" vertex="1">
          <mxGeometry x="50" width="160" height="30" as="geometry">
            <mxRectangle width="160" height="30" as="alternateBounds" />
          </mxGeometry>
        </mxCell>
        <mxCell id="laPyxiT6xSJ42g8x2N14-24" value="" style="shape=partialRectangle;collapsible=0;dropTarget=0;pointerEvents=0;fillColor=none;top=0;left=0;bottom=0;right=0;points=[[0,0.5],[1,0.5]];portConstraint=eastwest;" parent="laPyxiT6xSJ42g8x2N14-14" vertex="1">
          <mxGeometry y="82" width="210" height="40" as="geometry" />
        </mxCell>
        <mxCell id="laPyxiT6xSJ42g8x2N14-25" value="" style="shape=partialRectangle;connectable=0;fillColor=none;top=0;left=0;bottom=0;right=0;editable=1;overflow=hidden;" parent="laPyxiT6xSJ42g8x2N14-24" vertex="1">
          <mxGeometry width="50" height="40" as="geometry">
            <mxRectangle width="50" height="40" as="alternateBounds" />
          </mxGeometry>
        </mxCell>
        <mxCell id="laPyxiT6xSJ42g8x2N14-26" value="Camera sau" style="shape=partialRectangle;connectable=0;fillColor=none;top=0;left=0;bottom=0;right=0;align=left;spacingLeft=6;overflow=hidden;" parent="laPyxiT6xSJ42g8x2N14-24" vertex="1">
          <mxGeometry x="50" width="160" height="40" as="geometry">
            <mxRectangle width="160" height="40" as="alternateBounds" />
          </mxGeometry>
        </mxCell>
        <mxCell id="04wsWfun4xyjByyrPRFR-1" value="" style="shape=partialRectangle;collapsible=0;dropTarget=0;pointerEvents=0;fillColor=none;top=0;left=0;bottom=0;right=0;points=[[0,0.5],[1,0.5]];portConstraint=eastwest;" parent="laPyxiT6xSJ42g8x2N14-14" vertex="1">
          <mxGeometry y="122" width="210" height="40" as="geometry" />
        </mxCell>
        <mxCell id="04wsWfun4xyjByyrPRFR-2" value="" style="shape=partialRectangle;connectable=0;fillColor=none;top=0;left=0;bottom=0;right=0;editable=1;overflow=hidden;" parent="04wsWfun4xyjByyrPRFR-1" vertex="1">
          <mxGeometry width="50" height="40" as="geometry">
            <mxRectangle width="50" height="40" as="alternateBounds" />
          </mxGeometry>
        </mxCell>
        <mxCell id="04wsWfun4xyjByyrPRFR-3" value="Camera trước" style="shape=partialRectangle;connectable=0;fillColor=none;top=0;left=0;bottom=0;right=0;align=left;spacingLeft=6;overflow=hidden;" parent="04wsWfun4xyjByyrPRFR-1" vertex="1">
          <mxGeometry x="50" width="160" height="40" as="geometry">
            <mxRectangle width="160" height="40" as="alternateBounds" />
          </mxGeometry>
        </mxCell>
        <mxCell id="DN-LTefcZSK7lFFQ5vny-52" value="" style="shape=partialRectangle;collapsible=0;dropTarget=0;pointerEvents=0;fillColor=none;top=0;left=0;bottom=0;right=0;points=[[0,0.5],[1,0.5]];portConstraint=eastwest;" parent="laPyxiT6xSJ42g8x2N14-14" vertex="1">
          <mxGeometry y="162" width="210" height="40" as="geometry" />
        </mxCell>
        <mxCell id="DN-LTefcZSK7lFFQ5vny-53" value="" style="shape=partialRectangle;connectable=0;fillColor=none;top=0;left=0;bottom=0;right=0;editable=1;overflow=hidden;" parent="DN-LTefcZSK7lFFQ5vny-52" vertex="1">
          <mxGeometry width="50" height="40" as="geometry">
            <mxRectangle width="50" height="40" as="alternateBounds" />
          </mxGeometry>
        </mxCell>
        <mxCell id="DN-LTefcZSK7lFFQ5vny-54" value="Phiên bản" style="shape=partialRectangle;connectable=0;fillColor=none;top=0;left=0;bottom=0;right=0;align=left;spacingLeft=6;overflow=hidden;" parent="DN-LTefcZSK7lFFQ5vny-52" vertex="1">
          <mxGeometry x="50" width="160" height="40" as="geometry">
            <mxRectangle width="160" height="40" as="alternateBounds" />
          </mxGeometry>
        </mxCell>
        <mxCell id="DN-LTefcZSK7lFFQ5vny-55" value="" style="shape=partialRectangle;collapsible=0;dropTarget=0;pointerEvents=0;fillColor=none;top=0;left=0;bottom=0;right=0;points=[[0,0.5],[1,0.5]];portConstraint=eastwest;" parent="laPyxiT6xSJ42g8x2N14-14" vertex="1">
          <mxGeometry y="202" width="210" height="40" as="geometry" />
        </mxCell>
        <mxCell id="DN-LTefcZSK7lFFQ5vny-56" value="" style="shape=partialRectangle;connectable=0;fillColor=none;top=0;left=0;bottom=0;right=0;editable=1;overflow=hidden;" parent="DN-LTefcZSK7lFFQ5vny-55" vertex="1">
          <mxGeometry width="50" height="40" as="geometry">
            <mxRectangle width="50" height="40" as="alternateBounds" />
          </mxGeometry>
        </mxCell>
        <mxCell id="DN-LTefcZSK7lFFQ5vny-57" value="CPU" style="shape=partialRectangle;connectable=0;fillColor=none;top=0;left=0;bottom=0;right=0;align=left;spacingLeft=6;overflow=hidden;" parent="DN-LTefcZSK7lFFQ5vny-55" vertex="1">
          <mxGeometry x="50" width="160" height="40" as="geometry">
            <mxRectangle width="160" height="40" as="alternateBounds" />
          </mxGeometry>
        </mxCell>
        <mxCell id="DN-LTefcZSK7lFFQ5vny-58" value="" style="shape=partialRectangle;collapsible=0;dropTarget=0;pointerEvents=0;fillColor=none;top=0;left=0;bottom=0;right=0;points=[[0,0.5],[1,0.5]];portConstraint=eastwest;" parent="laPyxiT6xSJ42g8x2N14-14" vertex="1">
          <mxGeometry y="242" width="210" height="40" as="geometry" />
        </mxCell>
        <mxCell id="DN-LTefcZSK7lFFQ5vny-59" value="" style="shape=partialRectangle;connectable=0;fillColor=none;top=0;left=0;bottom=0;right=0;editable=1;overflow=hidden;" parent="DN-LTefcZSK7lFFQ5vny-58" vertex="1">
          <mxGeometry width="50" height="40" as="geometry">
            <mxRectangle width="50" height="40" as="alternateBounds" />
          </mxGeometry>
        </mxCell>
        <mxCell id="DN-LTefcZSK7lFFQ5vny-60" value="Số nhân CPU" style="shape=partialRectangle;connectable=0;fillColor=none;top=0;left=0;bottom=0;right=0;align=left;spacingLeft=6;overflow=hidden;" parent="DN-LTefcZSK7lFFQ5vny-58" vertex="1">
          <mxGeometry x="50" width="160" height="40" as="geometry">
            <mxRectangle width="160" height="40" as="alternateBounds" />
          </mxGeometry>
        </mxCell>
        <mxCell id="DN-LTefcZSK7lFFQ5vny-61" value="" style="shape=partialRectangle;collapsible=0;dropTarget=0;pointerEvents=0;fillColor=none;top=0;left=0;bottom=0;right=0;points=[[0,0.5],[1,0.5]];portConstraint=eastwest;" parent="laPyxiT6xSJ42g8x2N14-14" vertex="1">
          <mxGeometry y="282" width="210" height="40" as="geometry" />
        </mxCell>
        <mxCell id="DN-LTefcZSK7lFFQ5vny-62" value="" style="shape=partialRectangle;connectable=0;fillColor=none;top=0;left=0;bottom=0;right=0;editable=1;overflow=hidden;" parent="DN-LTefcZSK7lFFQ5vny-61" vertex="1">
          <mxGeometry width="50" height="40" as="geometry">
            <mxRectangle width="50" height="40" as="alternateBounds" />
          </mxGeometry>
        </mxCell>
        <mxCell id="DN-LTefcZSK7lFFQ5vny-63" value="Tốc độ tối đa" style="shape=partialRectangle;connectable=0;fillColor=none;top=0;left=0;bottom=0;right=0;align=left;spacingLeft=6;overflow=hidden;" parent="DN-LTefcZSK7lFFQ5vny-61" vertex="1">
          <mxGeometry x="50" width="160" height="40" as="geometry">
            <mxRectangle width="160" height="40" as="alternateBounds" />
          </mxGeometry>
        </mxCell>
        <mxCell id="DN-LTefcZSK7lFFQ5vny-64" value="" style="shape=partialRectangle;collapsible=0;dropTarget=0;pointerEvents=0;fillColor=none;top=0;left=0;bottom=0;right=0;points=[[0,0.5],[1,0.5]];portConstraint=eastwest;" parent="laPyxiT6xSJ42g8x2N14-14" vertex="1">
          <mxGeometry y="322" width="210" height="40" as="geometry" />
        </mxCell>
        <mxCell id="DN-LTefcZSK7lFFQ5vny-65" value="" style="shape=partialRectangle;connectable=0;fillColor=none;top=0;left=0;bottom=0;right=0;editable=1;overflow=hidden;" parent="DN-LTefcZSK7lFFQ5vny-64" vertex="1">
          <mxGeometry width="50" height="40" as="geometry">
            <mxRectangle width="50" height="40" as="alternateBounds" />
          </mxGeometry>
        </mxCell>
        <mxCell id="DN-LTefcZSK7lFFQ5vny-66" value="64 Bits" style="shape=partialRectangle;connectable=0;fillColor=none;top=0;left=0;bottom=0;right=0;align=left;spacingLeft=6;overflow=hidden;" parent="DN-LTefcZSK7lFFQ5vny-64" vertex="1">
          <mxGeometry x="50" width="160" height="40" as="geometry">
            <mxRectangle width="160" height="40" as="alternateBounds" />
          </mxGeometry>
        </mxCell>
        <mxCell id="DN-LTefcZSK7lFFQ5vny-67" value="" style="shape=partialRectangle;collapsible=0;dropTarget=0;pointerEvents=0;fillColor=none;top=0;left=0;bottom=0;right=0;points=[[0,0.5],[1,0.5]];portConstraint=eastwest;" parent="laPyxiT6xSJ42g8x2N14-14" vertex="1">
          <mxGeometry y="362" width="210" height="40" as="geometry" />
        </mxCell>
        <mxCell id="DN-LTefcZSK7lFFQ5vny-68" value="" style="shape=partialRectangle;connectable=0;fillColor=none;top=0;left=0;bottom=0;right=0;editable=1;overflow=hidden;" parent="DN-LTefcZSK7lFFQ5vny-67" vertex="1">
          <mxGeometry width="50" height="40" as="geometry">
            <mxRectangle width="50" height="40" as="alternateBounds" />
          </mxGeometry>
        </mxCell>
        <mxCell id="DN-LTefcZSK7lFFQ5vny-69" value="Công nghệ màn hình" style="shape=partialRectangle;connectable=0;fillColor=none;top=0;left=0;bottom=0;right=0;align=left;spacingLeft=6;overflow=hidden;" parent="DN-LTefcZSK7lFFQ5vny-67" vertex="1">
          <mxGeometry x="50" width="160" height="40" as="geometry">
            <mxRectangle width="160" height="40" as="alternateBounds" />
          </mxGeometry>
        </mxCell>
        <mxCell id="DN-LTefcZSK7lFFQ5vny-70" value="" style="shape=partialRectangle;collapsible=0;dropTarget=0;pointerEvents=0;fillColor=none;top=0;left=0;bottom=0;right=0;points=[[0,0.5],[1,0.5]];portConstraint=eastwest;" parent="laPyxiT6xSJ42g8x2N14-14" vertex="1">
          <mxGeometry y="402" width="210" height="40" as="geometry" />
        </mxCell>
        <mxCell id="DN-LTefcZSK7lFFQ5vny-71" value="" style="shape=partialRectangle;connectable=0;fillColor=none;top=0;left=0;bottom=0;right=0;editable=1;overflow=hidden;" parent="DN-LTefcZSK7lFFQ5vny-70" vertex="1">
          <mxGeometry width="50" height="40" as="geometry">
            <mxRectangle width="50" height="40" as="alternateBounds" />
          </mxGeometry>
        </mxCell>
        <mxCell id="DN-LTefcZSK7lFFQ5vny-72" value="Kích thước" style="shape=partialRectangle;connectable=0;fillColor=none;top=0;left=0;bottom=0;right=0;align=left;spacingLeft=6;overflow=hidden;" parent="DN-LTefcZSK7lFFQ5vny-70" vertex="1">
          <mxGeometry x="50" width="160" height="40" as="geometry">
            <mxRectangle width="160" height="40" as="alternateBounds" />
          </mxGeometry>
        </mxCell>
        <mxCell id="DN-LTefcZSK7lFFQ5vny-73" value="" style="shape=partialRectangle;collapsible=0;dropTarget=0;pointerEvents=0;fillColor=none;top=0;left=0;bottom=0;right=0;points=[[0,0.5],[1,0.5]];portConstraint=eastwest;" parent="laPyxiT6xSJ42g8x2N14-14" vertex="1">
          <mxGeometry y="442" width="210" height="40" as="geometry" />
        </mxCell>
        <mxCell id="DN-LTefcZSK7lFFQ5vny-74" value="" style="shape=partialRectangle;connectable=0;fillColor=none;top=0;left=0;bottom=0;right=0;editable=1;overflow=hidden;" parent="DN-LTefcZSK7lFFQ5vny-73" vertex="1">
          <mxGeometry width="50" height="40" as="geometry">
            <mxRectangle width="50" height="40" as="alternateBounds" />
          </mxGeometry>
        </mxCell>
        <mxCell id="DN-LTefcZSK7lFFQ5vny-75" value="Chuẩn màn hình" style="shape=partialRectangle;connectable=0;fillColor=none;top=0;left=0;bottom=0;right=0;align=left;spacingLeft=6;overflow=hidden;" parent="DN-LTefcZSK7lFFQ5vny-73" vertex="1">
          <mxGeometry x="50" width="160" height="40" as="geometry">
            <mxRectangle width="160" height="40" as="alternateBounds" />
          </mxGeometry>
        </mxCell>
        <mxCell id="DN-LTefcZSK7lFFQ5vny-76" value="" style="shape=partialRectangle;collapsible=0;dropTarget=0;pointerEvents=0;fillColor=none;top=0;left=0;bottom=0;right=0;points=[[0,0.5],[1,0.5]];portConstraint=eastwest;" parent="laPyxiT6xSJ42g8x2N14-14" vertex="1">
          <mxGeometry y="482" width="210" height="40" as="geometry" />
        </mxCell>
        <mxCell id="DN-LTefcZSK7lFFQ5vny-77" value="" style="shape=partialRectangle;connectable=0;fillColor=none;top=0;left=0;bottom=0;right=0;editable=1;overflow=hidden;" parent="DN-LTefcZSK7lFFQ5vny-76" vertex="1">
          <mxGeometry width="50" height="40" as="geometry">
            <mxRectangle width="50" height="40" as="alternateBounds" />
          </mxGeometry>
        </mxCell>
        <mxCell id="DN-LTefcZSK7lFFQ5vny-78" value="Độ phân giải" style="shape=partialRectangle;connectable=0;fillColor=none;top=0;left=0;bottom=0;right=0;align=left;spacingLeft=6;overflow=hidden;" parent="DN-LTefcZSK7lFFQ5vny-76" vertex="1">
          <mxGeometry x="50" width="160" height="40" as="geometry">
            <mxRectangle width="160" height="40" as="alternateBounds" />
          </mxGeometry>
        </mxCell>
        <mxCell id="DN-LTefcZSK7lFFQ5vny-82" value="" style="shape=partialRectangle;collapsible=0;dropTarget=0;pointerEvents=0;fillColor=none;top=0;left=0;bottom=0;right=0;points=[[0,0.5],[1,0.5]];portConstraint=eastwest;" parent="laPyxiT6xSJ42g8x2N14-14" vertex="1">
          <mxGeometry y="522" width="210" height="40" as="geometry" />
        </mxCell>
        <mxCell id="DN-LTefcZSK7lFFQ5vny-83" value="" style="shape=partialRectangle;connectable=0;fillColor=none;top=0;left=0;bottom=0;right=0;editable=1;overflow=hidden;" parent="DN-LTefcZSK7lFFQ5vny-82" vertex="1">
          <mxGeometry width="50" height="40" as="geometry">
            <mxRectangle width="50" height="40" as="alternateBounds" />
          </mxGeometry>
        </mxCell>
        <mxCell id="DN-LTefcZSK7lFFQ5vny-84" value="Chất liệu màn hình" style="shape=partialRectangle;connectable=0;fillColor=none;top=0;left=0;bottom=0;right=0;align=left;spacingLeft=6;overflow=hidden;" parent="DN-LTefcZSK7lFFQ5vny-82" vertex="1">
          <mxGeometry x="50" width="160" height="40" as="geometry">
            <mxRectangle width="160" height="40" as="alternateBounds" />
          </mxGeometry>
        </mxCell>
        <mxCell id="DN-LTefcZSK7lFFQ5vny-88" value="" style="shape=partialRectangle;collapsible=0;dropTarget=0;pointerEvents=0;fillColor=none;top=0;left=0;bottom=0;right=0;points=[[0,0.5],[1,0.5]];portConstraint=eastwest;" parent="laPyxiT6xSJ42g8x2N14-14" vertex="1">
          <mxGeometry y="562" width="210" height="40" as="geometry" />
        </mxCell>
        <mxCell id="DN-LTefcZSK7lFFQ5vny-89" value="" style="shape=partialRectangle;connectable=0;fillColor=none;top=0;left=0;bottom=0;right=0;editable=1;overflow=hidden;" parent="DN-LTefcZSK7lFFQ5vny-88" vertex="1">
          <mxGeometry width="50" height="40" as="geometry">
            <mxRectangle width="50" height="40" as="alternateBounds" />
          </mxGeometry>
        </mxCell>
        <mxCell id="DN-LTefcZSK7lFFQ5vny-90" value="GPU" style="shape=partialRectangle;connectable=0;fillColor=none;top=0;left=0;bottom=0;right=0;align=left;spacingLeft=6;overflow=hidden;" parent="DN-LTefcZSK7lFFQ5vny-88" vertex="1">
          <mxGeometry x="50" width="160" height="40" as="geometry">
            <mxRectangle width="160" height="40" as="alternateBounds" />
          </mxGeometry>
        </mxCell>
        <mxCell id="DN-LTefcZSK7lFFQ5vny-91" value="" style="shape=partialRectangle;collapsible=0;dropTarget=0;pointerEvents=0;fillColor=none;top=0;left=0;bottom=0;right=0;points=[[0,0.5],[1,0.5]];portConstraint=eastwest;" parent="laPyxiT6xSJ42g8x2N14-14" vertex="1">
          <mxGeometry y="602" width="210" height="40" as="geometry" />
        </mxCell>
        <mxCell id="DN-LTefcZSK7lFFQ5vny-92" value="" style="shape=partialRectangle;connectable=0;fillColor=none;top=0;left=0;bottom=0;right=0;editable=1;overflow=hidden;" parent="DN-LTefcZSK7lFFQ5vny-91" vertex="1">
          <mxGeometry width="50" height="40" as="geometry">
            <mxRectangle width="50" height="40" as="alternateBounds" />
          </mxGeometry>
        </mxCell>
        <mxCell id="DN-LTefcZSK7lFFQ5vny-93" value="RAM" style="shape=partialRectangle;connectable=0;fillColor=none;top=0;left=0;bottom=0;right=0;align=left;spacingLeft=6;overflow=hidden;" parent="DN-LTefcZSK7lFFQ5vny-91" vertex="1">
          <mxGeometry x="50" width="160" height="40" as="geometry">
            <mxRectangle width="160" height="40" as="alternateBounds" />
          </mxGeometry>
        </mxCell>
        <mxCell id="DN-LTefcZSK7lFFQ5vny-97" value="" style="shape=partialRectangle;collapsible=0;dropTarget=0;pointerEvents=0;fillColor=none;top=0;left=0;bottom=0;right=0;points=[[0,0.5],[1,0.5]];portConstraint=eastwest;" parent="laPyxiT6xSJ42g8x2N14-14" vertex="1">
          <mxGeometry y="642" width="210" height="40" as="geometry" />
        </mxCell>
        <mxCell id="DN-LTefcZSK7lFFQ5vny-98" value="" style="shape=partialRectangle;connectable=0;fillColor=none;top=0;left=0;bottom=0;right=0;editable=1;overflow=hidden;" parent="DN-LTefcZSK7lFFQ5vny-97" vertex="1">
          <mxGeometry width="50" height="40" as="geometry">
            <mxRectangle width="50" height="40" as="alternateBounds" />
          </mxGeometry>
        </mxCell>
        <mxCell id="DN-LTefcZSK7lFFQ5vny-99" value="Bộ nhớ trong" style="shape=partialRectangle;connectable=0;fillColor=none;top=0;left=0;bottom=0;right=0;align=left;spacingLeft=6;overflow=hidden;" parent="DN-LTefcZSK7lFFQ5vny-97" vertex="1">
          <mxGeometry x="50" width="160" height="40" as="geometry">
            <mxRectangle width="160" height="40" as="alternateBounds" />
          </mxGeometry>
        </mxCell>
        <mxCell id="laPyxiT6xSJ42g8x2N14-27" value="Danh mục    " style="shape=table;startSize=30;container=1;collapsible=1;childLayout=tableLayout;fixedRows=1;rowLines=0;fontStyle=1;align=center;resizeLast=1;fillColor=#dae8fc;strokeColor=#6c8ebf;" parent="1" vertex="1">
          <mxGeometry x="50" y="10" width="180" height="100" as="geometry" />
        </mxCell>
        <mxCell id="laPyxiT6xSJ42g8x2N14-28" value="" style="shape=partialRectangle;collapsible=0;dropTarget=0;pointerEvents=0;fillColor=none;top=0;left=0;bottom=1;right=0;points=[[0,0.5],[1,0.5]];portConstraint=eastwest;" parent="laPyxiT6xSJ42g8x2N14-27" vertex="1">
          <mxGeometry y="30" width="180" height="30" as="geometry" />
        </mxCell>
        <mxCell id="laPyxiT6xSJ42g8x2N14-29" value="PK" style="shape=partialRectangle;connectable=0;fillColor=none;top=0;left=0;bottom=0;right=0;fontStyle=1;overflow=hidden;" parent="laPyxiT6xSJ42g8x2N14-28" vertex="1">
          <mxGeometry width="30" height="30" as="geometry">
            <mxRectangle width="30" height="30" as="alternateBounds" />
          </mxGeometry>
        </mxCell>
        <mxCell id="laPyxiT6xSJ42g8x2N14-30" value="Mã danh mục " style="shape=partialRectangle;connectable=0;fillColor=none;top=0;left=0;bottom=0;right=0;align=left;spacingLeft=6;fontStyle=5;overflow=hidden;" parent="laPyxiT6xSJ42g8x2N14-28" vertex="1">
          <mxGeometry x="30" width="150" height="30" as="geometry">
            <mxRectangle width="150" height="30" as="alternateBounds" />
          </mxGeometry>
        </mxCell>
        <mxCell id="laPyxiT6xSJ42g8x2N14-31" value="" style="shape=partialRectangle;collapsible=0;dropTarget=0;pointerEvents=0;fillColor=none;top=0;left=0;bottom=0;right=0;points=[[0,0.5],[1,0.5]];portConstraint=eastwest;" parent="laPyxiT6xSJ42g8x2N14-27" vertex="1">
          <mxGeometry y="60" width="180" height="30" as="geometry" />
        </mxCell>
        <mxCell id="laPyxiT6xSJ42g8x2N14-32" value="" style="shape=partialRectangle;connectable=0;fillColor=none;top=0;left=0;bottom=0;right=0;editable=1;overflow=hidden;" parent="laPyxiT6xSJ42g8x2N14-31" vertex="1">
          <mxGeometry width="30" height="30" as="geometry">
            <mxRectangle width="30" height="30" as="alternateBounds" />
          </mxGeometry>
        </mxCell>
        <mxCell id="laPyxiT6xSJ42g8x2N14-33" value="Tên danh mục" style="shape=partialRectangle;connectable=0;fillColor=none;top=0;left=0;bottom=0;right=0;align=left;spacingLeft=6;overflow=hidden;" parent="laPyxiT6xSJ42g8x2N14-31" vertex="1">
          <mxGeometry x="30" width="150" height="30" as="geometry">
            <mxRectangle width="150" height="30" as="alternateBounds" />
          </mxGeometry>
        </mxCell>
        <mxCell id="laPyxiT6xSJ42g8x2N14-40" value="Sản phẩm" style="shape=table;startSize=30;container=1;collapsible=1;childLayout=tableLayout;fixedRows=1;rowLines=0;fontStyle=1;align=center;resizeLast=1;fillColor=#dae8fc;strokeColor=#6c8ebf;" parent="1" vertex="1">
          <mxGeometry x="30" y="120" width="200" height="360" as="geometry" />
        </mxCell>
        <mxCell id="laPyxiT6xSJ42g8x2N14-41" value="" style="shape=partialRectangle;collapsible=0;dropTarget=0;pointerEvents=0;fillColor=none;top=0;left=0;bottom=1;right=0;points=[[0,0.5],[1,0.5]];portConstraint=eastwest;" parent="laPyxiT6xSJ42g8x2N14-40" vertex="1">
          <mxGeometry y="30" width="200" height="20" as="geometry" />
        </mxCell>
        <mxCell id="laPyxiT6xSJ42g8x2N14-42" value="PK" style="shape=partialRectangle;connectable=0;fillColor=none;top=0;left=0;bottom=0;right=0;fontStyle=1;overflow=hidden;" parent="laPyxiT6xSJ42g8x2N14-41" vertex="1">
          <mxGeometry width="30" height="20" as="geometry">
            <mxRectangle width="30" height="20" as="alternateBounds" />
          </mxGeometry>
        </mxCell>
        <mxCell id="laPyxiT6xSJ42g8x2N14-43" value="Mã sản phẩm" style="shape=partialRectangle;connectable=0;fillColor=none;top=0;left=0;bottom=0;right=0;align=left;spacingLeft=6;fontStyle=5;overflow=hidden;" parent="laPyxiT6xSJ42g8x2N14-41" vertex="1">
          <mxGeometry x="30" width="170" height="20" as="geometry">
            <mxRectangle width="170" height="20" as="alternateBounds" />
          </mxGeometry>
        </mxCell>
        <mxCell id="laPyxiT6xSJ42g8x2N14-44" value="" style="shape=partialRectangle;collapsible=0;dropTarget=0;pointerEvents=0;fillColor=none;top=0;left=0;bottom=0;right=0;points=[[0,0.5],[1,0.5]];portConstraint=eastwest;" parent="laPyxiT6xSJ42g8x2N14-40" vertex="1">
          <mxGeometry y="50" width="200" height="30" as="geometry" />
        </mxCell>
        <mxCell id="laPyxiT6xSJ42g8x2N14-45" value="FK" style="shape=partialRectangle;connectable=0;fillColor=none;top=0;left=0;bottom=0;right=0;editable=1;overflow=hidden;" parent="laPyxiT6xSJ42g8x2N14-44" vertex="1">
          <mxGeometry width="30" height="30" as="geometry">
            <mxRectangle width="30" height="30" as="alternateBounds" />
          </mxGeometry>
        </mxCell>
        <mxCell id="laPyxiT6xSJ42g8x2N14-46" value="Mã danh mục" style="shape=partialRectangle;connectable=0;fillColor=none;top=0;left=0;bottom=0;right=0;align=left;spacingLeft=6;overflow=hidden;" parent="laPyxiT6xSJ42g8x2N14-44" vertex="1">
          <mxGeometry x="30" width="170" height="30" as="geometry">
            <mxRectangle width="170" height="30" as="alternateBounds" />
          </mxGeometry>
        </mxCell>
        <mxCell id="DN-LTefcZSK7lFFQ5vny-124" value="" style="shape=partialRectangle;collapsible=0;dropTarget=0;pointerEvents=0;fillColor=none;top=0;left=0;bottom=0;right=0;points=[[0,0.5],[1,0.5]];portConstraint=eastwest;" parent="laPyxiT6xSJ42g8x2N14-40" vertex="1">
          <mxGeometry y="80" width="200" height="30" as="geometry" />
        </mxCell>
        <mxCell id="DN-LTefcZSK7lFFQ5vny-125" value="" style="shape=partialRectangle;connectable=0;fillColor=none;top=0;left=0;bottom=0;right=0;editable=1;overflow=hidden;" parent="DN-LTefcZSK7lFFQ5vny-124" vertex="1">
          <mxGeometry width="30" height="30" as="geometry">
            <mxRectangle width="30" height="30" as="alternateBounds" />
          </mxGeometry>
        </mxCell>
        <mxCell id="DN-LTefcZSK7lFFQ5vny-126" value="Tên sản phẩm " style="shape=partialRectangle;connectable=0;fillColor=none;top=0;left=0;bottom=0;right=0;align=left;spacingLeft=6;overflow=hidden;" parent="DN-LTefcZSK7lFFQ5vny-124" vertex="1">
          <mxGeometry x="30" width="170" height="30" as="geometry">
            <mxRectangle width="170" height="30" as="alternateBounds" />
          </mxGeometry>
        </mxCell>
        <mxCell id="laPyxiT6xSJ42g8x2N14-47" value="" style="shape=partialRectangle;collapsible=0;dropTarget=0;pointerEvents=0;fillColor=none;top=0;left=0;bottom=0;right=0;points=[[0,0.5],[1,0.5]];portConstraint=eastwest;" parent="laPyxiT6xSJ42g8x2N14-40" vertex="1">
          <mxGeometry y="110" width="200" height="30" as="geometry" />
        </mxCell>
        <mxCell id="laPyxiT6xSJ42g8x2N14-48" value="" style="shape=partialRectangle;connectable=0;fillColor=none;top=0;left=0;bottom=0;right=0;editable=1;overflow=hidden;" parent="laPyxiT6xSJ42g8x2N14-47" vertex="1">
          <mxGeometry width="30" height="30" as="geometry">
            <mxRectangle width="30" height="30" as="alternateBounds" />
          </mxGeometry>
        </mxCell>
        <mxCell id="laPyxiT6xSJ42g8x2N14-49" value="Hình ảnh" style="shape=partialRectangle;connectable=0;fillColor=none;top=0;left=0;bottom=0;right=0;align=left;spacingLeft=6;overflow=hidden;" parent="laPyxiT6xSJ42g8x2N14-47" vertex="1">
          <mxGeometry x="30" width="170" height="30" as="geometry">
            <mxRectangle width="170" height="30" as="alternateBounds" />
          </mxGeometry>
        </mxCell>
        <mxCell id="laPyxiT6xSJ42g8x2N14-50" value="" style="shape=partialRectangle;collapsible=0;dropTarget=0;pointerEvents=0;fillColor=none;top=0;left=0;bottom=0;right=0;points=[[0,0.5],[1,0.5]];portConstraint=eastwest;" parent="laPyxiT6xSJ42g8x2N14-40" vertex="1">
          <mxGeometry y="140" width="200" height="30" as="geometry" />
        </mxCell>
        <mxCell id="laPyxiT6xSJ42g8x2N14-51" value="" style="shape=partialRectangle;connectable=0;fillColor=none;top=0;left=0;bottom=0;right=0;editable=1;overflow=hidden;" parent="laPyxiT6xSJ42g8x2N14-50" vertex="1">
          <mxGeometry width="30" height="30" as="geometry">
            <mxRectangle width="30" height="30" as="alternateBounds" />
          </mxGeometry>
        </mxCell>
        <mxCell id="laPyxiT6xSJ42g8x2N14-52" value="Đơn giá" style="shape=partialRectangle;connectable=0;fillColor=none;top=0;left=0;bottom=0;right=0;align=left;spacingLeft=6;overflow=hidden;" parent="laPyxiT6xSJ42g8x2N14-50" vertex="1">
          <mxGeometry x="30" width="170" height="30" as="geometry">
            <mxRectangle width="170" height="30" as="alternateBounds" />
          </mxGeometry>
        </mxCell>
        <mxCell id="DN-LTefcZSK7lFFQ5vny-103" value="" style="shape=partialRectangle;collapsible=0;dropTarget=0;pointerEvents=0;fillColor=none;top=0;left=0;bottom=0;right=0;points=[[0,0.5],[1,0.5]];portConstraint=eastwest;" parent="laPyxiT6xSJ42g8x2N14-40" vertex="1">
          <mxGeometry y="170" width="200" height="30" as="geometry" />
        </mxCell>
        <mxCell id="DN-LTefcZSK7lFFQ5vny-104" value="" style="shape=partialRectangle;connectable=0;fillColor=none;top=0;left=0;bottom=0;right=0;editable=1;overflow=hidden;" parent="DN-LTefcZSK7lFFQ5vny-103" vertex="1">
          <mxGeometry width="30" height="30" as="geometry">
            <mxRectangle width="30" height="30" as="alternateBounds" />
          </mxGeometry>
        </mxCell>
        <mxCell id="DN-LTefcZSK7lFFQ5vny-105" value="Phần trăm giảm giá" style="shape=partialRectangle;connectable=0;fillColor=none;top=0;left=0;bottom=0;right=0;align=left;spacingLeft=6;overflow=hidden;" parent="DN-LTefcZSK7lFFQ5vny-103" vertex="1">
          <mxGeometry x="30" width="170" height="30" as="geometry">
            <mxRectangle width="170" height="30" as="alternateBounds" />
          </mxGeometry>
        </mxCell>
        <mxCell id="DN-LTefcZSK7lFFQ5vny-106" value="" style="shape=partialRectangle;collapsible=0;dropTarget=0;pointerEvents=0;fillColor=none;top=0;left=0;bottom=0;right=0;points=[[0,0.5],[1,0.5]];portConstraint=eastwest;" parent="laPyxiT6xSJ42g8x2N14-40" vertex="1">
          <mxGeometry y="200" width="200" height="30" as="geometry" />
        </mxCell>
        <mxCell id="DN-LTefcZSK7lFFQ5vny-107" value="" style="shape=partialRectangle;connectable=0;fillColor=none;top=0;left=0;bottom=0;right=0;editable=1;overflow=hidden;" parent="DN-LTefcZSK7lFFQ5vny-106" vertex="1">
          <mxGeometry width="30" height="30" as="geometry">
            <mxRectangle width="30" height="30" as="alternateBounds" />
          </mxGeometry>
        </mxCell>
        <mxCell id="DN-LTefcZSK7lFFQ5vny-108" value="Mã danh mục" style="shape=partialRectangle;connectable=0;fillColor=none;top=0;left=0;bottom=0;right=0;align=left;spacingLeft=6;overflow=hidden;" parent="DN-LTefcZSK7lFFQ5vny-106" vertex="1">
          <mxGeometry x="30" width="170" height="30" as="geometry">
            <mxRectangle width="170" height="30" as="alternateBounds" />
          </mxGeometry>
        </mxCell>
        <mxCell id="DN-LTefcZSK7lFFQ5vny-109" value="" style="shape=partialRectangle;collapsible=0;dropTarget=0;pointerEvents=0;fillColor=none;top=0;left=0;bottom=0;right=0;points=[[0,0.5],[1,0.5]];portConstraint=eastwest;" parent="laPyxiT6xSJ42g8x2N14-40" vertex="1">
          <mxGeometry y="230" width="200" height="30" as="geometry" />
        </mxCell>
        <mxCell id="DN-LTefcZSK7lFFQ5vny-110" value="" style="shape=partialRectangle;connectable=0;fillColor=none;top=0;left=0;bottom=0;right=0;editable=1;overflow=hidden;" parent="DN-LTefcZSK7lFFQ5vny-109" vertex="1">
          <mxGeometry width="30" height="30" as="geometry">
            <mxRectangle width="30" height="30" as="alternateBounds" />
          </mxGeometry>
        </mxCell>
        <mxCell id="DN-LTefcZSK7lFFQ5vny-111" value="Ngày nhập" style="shape=partialRectangle;connectable=0;fillColor=none;top=0;left=0;bottom=0;right=0;align=left;spacingLeft=6;overflow=hidden;" parent="DN-LTefcZSK7lFFQ5vny-109" vertex="1">
          <mxGeometry x="30" width="170" height="30" as="geometry">
            <mxRectangle width="170" height="30" as="alternateBounds" />
          </mxGeometry>
        </mxCell>
        <mxCell id="DN-LTefcZSK7lFFQ5vny-112" value="" style="shape=partialRectangle;collapsible=0;dropTarget=0;pointerEvents=0;fillColor=none;top=0;left=0;bottom=0;right=0;points=[[0,0.5],[1,0.5]];portConstraint=eastwest;" parent="laPyxiT6xSJ42g8x2N14-40" vertex="1">
          <mxGeometry y="260" width="200" height="30" as="geometry" />
        </mxCell>
        <mxCell id="DN-LTefcZSK7lFFQ5vny-113" value="" style="shape=partialRectangle;connectable=0;fillColor=none;top=0;left=0;bottom=0;right=0;editable=1;overflow=hidden;" parent="DN-LTefcZSK7lFFQ5vny-112" vertex="1">
          <mxGeometry width="30" height="30" as="geometry">
            <mxRectangle width="30" height="30" as="alternateBounds" />
          </mxGeometry>
        </mxCell>
        <mxCell id="DN-LTefcZSK7lFFQ5vny-114" value="Số lượng" style="shape=partialRectangle;connectable=0;fillColor=none;top=0;left=0;bottom=0;right=0;align=left;spacingLeft=6;overflow=hidden;" parent="DN-LTefcZSK7lFFQ5vny-112" vertex="1">
          <mxGeometry x="30" width="170" height="30" as="geometry">
            <mxRectangle width="170" height="30" as="alternateBounds" />
          </mxGeometry>
        </mxCell>
        <mxCell id="DN-LTefcZSK7lFFQ5vny-115" value="" style="shape=partialRectangle;collapsible=0;dropTarget=0;pointerEvents=0;fillColor=none;top=0;left=0;bottom=0;right=0;points=[[0,0.5],[1,0.5]];portConstraint=eastwest;" parent="laPyxiT6xSJ42g8x2N14-40" vertex="1">
          <mxGeometry y="290" width="200" height="30" as="geometry" />
        </mxCell>
        <mxCell id="DN-LTefcZSK7lFFQ5vny-116" value="" style="shape=partialRectangle;connectable=0;fillColor=none;top=0;left=0;bottom=0;right=0;editable=1;overflow=hidden;" parent="DN-LTefcZSK7lFFQ5vny-115" vertex="1">
          <mxGeometry width="30" height="30" as="geometry">
            <mxRectangle width="30" height="30" as="alternateBounds" />
          </mxGeometry>
        </mxCell>
        <mxCell id="DN-LTefcZSK7lFFQ5vny-117" value="Mô tả sản phẩm" style="shape=partialRectangle;connectable=0;fillColor=none;top=0;left=0;bottom=0;right=0;align=left;spacingLeft=6;overflow=hidden;" parent="DN-LTefcZSK7lFFQ5vny-115" vertex="1">
          <mxGeometry x="30" width="170" height="30" as="geometry">
            <mxRectangle width="170" height="30" as="alternateBounds" />
          </mxGeometry>
        </mxCell>
        <mxCell id="DN-LTefcZSK7lFFQ5vny-118" value="" style="shape=partialRectangle;collapsible=0;dropTarget=0;pointerEvents=0;fillColor=none;top=0;left=0;bottom=0;right=0;points=[[0,0.5],[1,0.5]];portConstraint=eastwest;" parent="laPyxiT6xSJ42g8x2N14-40" vertex="1">
          <mxGeometry y="320" width="200" height="30" as="geometry" />
        </mxCell>
        <mxCell id="DN-LTefcZSK7lFFQ5vny-119" value="" style="shape=partialRectangle;connectable=0;fillColor=none;top=0;left=0;bottom=0;right=0;editable=1;overflow=hidden;" parent="DN-LTefcZSK7lFFQ5vny-118" vertex="1">
          <mxGeometry width="30" height="30" as="geometry">
            <mxRectangle width="30" height="30" as="alternateBounds" />
          </mxGeometry>
        </mxCell>
        <mxCell id="DN-LTefcZSK7lFFQ5vny-120" value="Trạng thái" style="shape=partialRectangle;connectable=0;fillColor=none;top=0;left=0;bottom=0;right=0;align=left;spacingLeft=6;overflow=hidden;" parent="DN-LTefcZSK7lFFQ5vny-118" vertex="1">
          <mxGeometry x="30" width="170" height="30" as="geometry">
            <mxRectangle width="170" height="30" as="alternateBounds" />
          </mxGeometry>
        </mxCell>
        <mxCell id="laPyxiT6xSJ42g8x2N14-83" value="Khách hàng" style="shape=table;startSize=30;container=1;collapsible=1;childLayout=tableLayout;fixedRows=1;rowLines=0;fontStyle=1;align=center;resizeLast=1;fillColor=#dae8fc;strokeColor=#6c8ebf;" parent="1" vertex="1">
          <mxGeometry x="-820" y="99" width="180" height="331" as="geometry">
            <mxRectangle x="-100" y="50" width="100" height="30" as="alternateBounds" />
          </mxGeometry>
        </mxCell>
        <mxCell id="laPyxiT6xSJ42g8x2N14-84" value="" style="shape=partialRectangle;collapsible=0;dropTarget=0;pointerEvents=0;fillColor=none;top=0;left=0;bottom=1;right=0;points=[[0,0.5],[1,0.5]];portConstraint=eastwest;" parent="laPyxiT6xSJ42g8x2N14-83" vertex="1">
          <mxGeometry y="30" width="180" height="30" as="geometry" />
        </mxCell>
        <mxCell id="laPyxiT6xSJ42g8x2N14-85" value="PK" style="shape=partialRectangle;connectable=0;fillColor=none;top=0;left=0;bottom=0;right=0;fontStyle=1;overflow=hidden;" parent="laPyxiT6xSJ42g8x2N14-84" vertex="1">
          <mxGeometry width="30" height="30" as="geometry">
            <mxRectangle width="30" height="30" as="alternateBounds" />
          </mxGeometry>
        </mxCell>
        <mxCell id="laPyxiT6xSJ42g8x2N14-86" value="Mã khách hàng" style="shape=partialRectangle;connectable=0;fillColor=none;top=0;left=0;bottom=0;right=0;align=left;spacingLeft=6;fontStyle=5;overflow=hidden;" parent="laPyxiT6xSJ42g8x2N14-84" vertex="1">
          <mxGeometry x="30" width="150" height="30" as="geometry">
            <mxRectangle width="150" height="30" as="alternateBounds" />
          </mxGeometry>
        </mxCell>
        <mxCell id="laPyxiT6xSJ42g8x2N14-87" value="" style="shape=partialRectangle;collapsible=0;dropTarget=0;pointerEvents=0;fillColor=none;top=0;left=0;bottom=0;right=0;points=[[0,0.5],[1,0.5]];portConstraint=eastwest;" parent="laPyxiT6xSJ42g8x2N14-83" vertex="1">
          <mxGeometry y="60" width="180" height="30" as="geometry" />
        </mxCell>
        <mxCell id="laPyxiT6xSJ42g8x2N14-88" value="" style="shape=partialRectangle;connectable=0;fillColor=none;top=0;left=0;bottom=0;right=0;editable=1;overflow=hidden;" parent="laPyxiT6xSJ42g8x2N14-87" vertex="1">
          <mxGeometry width="30" height="30" as="geometry">
            <mxRectangle width="30" height="30" as="alternateBounds" />
          </mxGeometry>
        </mxCell>
        <mxCell id="laPyxiT6xSJ42g8x2N14-89" value="Tên đăng nhập" style="shape=partialRectangle;connectable=0;fillColor=none;top=0;left=0;bottom=0;right=0;align=left;spacingLeft=6;overflow=hidden;" parent="laPyxiT6xSJ42g8x2N14-87" vertex="1">
          <mxGeometry x="30" width="150" height="30" as="geometry">
            <mxRectangle width="150" height="30" as="alternateBounds" />
          </mxGeometry>
        </mxCell>
        <mxCell id="laPyxiT6xSJ42g8x2N14-90" value="" style="shape=partialRectangle;collapsible=0;dropTarget=0;pointerEvents=0;fillColor=none;top=0;left=0;bottom=0;right=0;points=[[0,0.5],[1,0.5]];portConstraint=eastwest;" parent="laPyxiT6xSJ42g8x2N14-83" vertex="1">
          <mxGeometry y="90" width="180" height="30" as="geometry" />
        </mxCell>
        <mxCell id="laPyxiT6xSJ42g8x2N14-91" value="" style="shape=partialRectangle;connectable=0;fillColor=none;top=0;left=0;bottom=0;right=0;editable=1;overflow=hidden;" parent="laPyxiT6xSJ42g8x2N14-90" vertex="1">
          <mxGeometry width="30" height="30" as="geometry">
            <mxRectangle width="30" height="30" as="alternateBounds" />
          </mxGeometry>
        </mxCell>
        <mxCell id="laPyxiT6xSJ42g8x2N14-92" value="Mật khẩu đăng nhập" style="shape=partialRectangle;connectable=0;fillColor=none;top=0;left=0;bottom=0;right=0;align=left;spacingLeft=6;overflow=hidden;" parent="laPyxiT6xSJ42g8x2N14-90" vertex="1">
          <mxGeometry x="30" width="150" height="30" as="geometry">
            <mxRectangle width="150" height="30" as="alternateBounds" />
          </mxGeometry>
        </mxCell>
        <mxCell id="laPyxiT6xSJ42g8x2N14-93" value="" style="shape=partialRectangle;collapsible=0;dropTarget=0;pointerEvents=0;fillColor=none;top=0;left=0;bottom=0;right=0;points=[[0,0.5],[1,0.5]];portConstraint=eastwest;" parent="laPyxiT6xSJ42g8x2N14-83" vertex="1">
          <mxGeometry y="120" width="180" height="30" as="geometry" />
        </mxCell>
        <mxCell id="laPyxiT6xSJ42g8x2N14-94" value="" style="shape=partialRectangle;connectable=0;fillColor=none;top=0;left=0;bottom=0;right=0;editable=1;overflow=hidden;" parent="laPyxiT6xSJ42g8x2N14-93" vertex="1">
          <mxGeometry width="30" height="30" as="geometry">
            <mxRectangle width="30" height="30" as="alternateBounds" />
          </mxGeometry>
        </mxCell>
        <mxCell id="laPyxiT6xSJ42g8x2N14-95" value="Họ và tên" style="shape=partialRectangle;connectable=0;fillColor=none;top=0;left=0;bottom=0;right=0;align=left;spacingLeft=6;overflow=hidden;" parent="laPyxiT6xSJ42g8x2N14-93" vertex="1">
          <mxGeometry x="30" width="150" height="30" as="geometry">
            <mxRectangle width="150" height="30" as="alternateBounds" />
          </mxGeometry>
        </mxCell>
        <mxCell id="DN-LTefcZSK7lFFQ5vny-4" value="" style="shape=partialRectangle;collapsible=0;dropTarget=0;pointerEvents=0;fillColor=none;top=0;left=0;bottom=0;right=0;points=[[0,0.5],[1,0.5]];portConstraint=eastwest;" parent="laPyxiT6xSJ42g8x2N14-83" vertex="1">
          <mxGeometry y="150" width="180" height="30" as="geometry" />
        </mxCell>
        <mxCell id="DN-LTefcZSK7lFFQ5vny-5" value="" style="shape=partialRectangle;connectable=0;fillColor=none;top=0;left=0;bottom=0;right=0;editable=1;overflow=hidden;" parent="DN-LTefcZSK7lFFQ5vny-4" vertex="1">
          <mxGeometry width="30" height="30" as="geometry">
            <mxRectangle width="30" height="30" as="alternateBounds" />
          </mxGeometry>
        </mxCell>
        <mxCell id="DN-LTefcZSK7lFFQ5vny-6" value="Hình ảnh" style="shape=partialRectangle;connectable=0;fillColor=none;top=0;left=0;bottom=0;right=0;align=left;spacingLeft=6;overflow=hidden;" parent="DN-LTefcZSK7lFFQ5vny-4" vertex="1">
          <mxGeometry x="30" width="150" height="30" as="geometry">
            <mxRectangle width="150" height="30" as="alternateBounds" />
          </mxGeometry>
        </mxCell>
        <mxCell id="DN-LTefcZSK7lFFQ5vny-7" value="" style="shape=partialRectangle;collapsible=0;dropTarget=0;pointerEvents=0;fillColor=none;top=0;left=0;bottom=0;right=0;points=[[0,0.5],[1,0.5]];portConstraint=eastwest;" parent="laPyxiT6xSJ42g8x2N14-83" vertex="1">
          <mxGeometry y="180" width="180" height="30" as="geometry" />
        </mxCell>
        <mxCell id="DN-LTefcZSK7lFFQ5vny-8" value="" style="shape=partialRectangle;connectable=0;fillColor=none;top=0;left=0;bottom=0;right=0;editable=1;overflow=hidden;" parent="DN-LTefcZSK7lFFQ5vny-7" vertex="1">
          <mxGeometry width="30" height="30" as="geometry">
            <mxRectangle width="30" height="30" as="alternateBounds" />
          </mxGeometry>
        </mxCell>
        <mxCell id="DN-LTefcZSK7lFFQ5vny-9" value="Địa chỉ" style="shape=partialRectangle;connectable=0;fillColor=none;top=0;left=0;bottom=0;right=0;align=left;spacingLeft=6;overflow=hidden;" parent="DN-LTefcZSK7lFFQ5vny-7" vertex="1">
          <mxGeometry x="30" width="150" height="30" as="geometry">
            <mxRectangle width="150" height="30" as="alternateBounds" />
          </mxGeometry>
        </mxCell>
        <mxCell id="DN-LTefcZSK7lFFQ5vny-10" value="" style="shape=partialRectangle;collapsible=0;dropTarget=0;pointerEvents=0;fillColor=none;top=0;left=0;bottom=0;right=0;points=[[0,0.5],[1,0.5]];portConstraint=eastwest;" parent="laPyxiT6xSJ42g8x2N14-83" vertex="1">
          <mxGeometry y="210" width="180" height="30" as="geometry" />
        </mxCell>
        <mxCell id="DN-LTefcZSK7lFFQ5vny-11" value="" style="shape=partialRectangle;connectable=0;fillColor=none;top=0;left=0;bottom=0;right=0;editable=1;overflow=hidden;" parent="DN-LTefcZSK7lFFQ5vny-10" vertex="1">
          <mxGeometry width="30" height="30" as="geometry">
            <mxRectangle width="30" height="30" as="alternateBounds" />
          </mxGeometry>
        </mxCell>
        <mxCell id="DN-LTefcZSK7lFFQ5vny-12" value="Email" style="shape=partialRectangle;connectable=0;fillColor=none;top=0;left=0;bottom=0;right=0;align=left;spacingLeft=6;overflow=hidden;" parent="DN-LTefcZSK7lFFQ5vny-10" vertex="1">
          <mxGeometry x="30" width="150" height="30" as="geometry">
            <mxRectangle width="150" height="30" as="alternateBounds" />
          </mxGeometry>
        </mxCell>
        <mxCell id="DN-LTefcZSK7lFFQ5vny-13" value="" style="shape=partialRectangle;collapsible=0;dropTarget=0;pointerEvents=0;fillColor=none;top=0;left=0;bottom=0;right=0;points=[[0,0.5],[1,0.5]];portConstraint=eastwest;" parent="laPyxiT6xSJ42g8x2N14-83" vertex="1">
          <mxGeometry y="240" width="180" height="30" as="geometry" />
        </mxCell>
        <mxCell id="DN-LTefcZSK7lFFQ5vny-14" value="" style="shape=partialRectangle;connectable=0;fillColor=none;top=0;left=0;bottom=0;right=0;editable=1;overflow=hidden;" parent="DN-LTefcZSK7lFFQ5vny-13" vertex="1">
          <mxGeometry width="30" height="30" as="geometry">
            <mxRectangle width="30" height="30" as="alternateBounds" />
          </mxGeometry>
        </mxCell>
        <mxCell id="DN-LTefcZSK7lFFQ5vny-15" value="Trạng thái kích hoạt" style="shape=partialRectangle;connectable=0;fillColor=none;top=0;left=0;bottom=0;right=0;align=left;spacingLeft=6;overflow=hidden;" parent="DN-LTefcZSK7lFFQ5vny-13" vertex="1">
          <mxGeometry x="30" width="150" height="30" as="geometry">
            <mxRectangle width="150" height="30" as="alternateBounds" />
          </mxGeometry>
        </mxCell>
        <mxCell id="DN-LTefcZSK7lFFQ5vny-16" value="" style="shape=partialRectangle;collapsible=0;dropTarget=0;pointerEvents=0;fillColor=none;top=0;left=0;bottom=0;right=0;points=[[0,0.5],[1,0.5]];portConstraint=eastwest;" parent="laPyxiT6xSJ42g8x2N14-83" vertex="1">
          <mxGeometry y="270" width="180" height="30" as="geometry" />
        </mxCell>
        <mxCell id="DN-LTefcZSK7lFFQ5vny-17" value="" style="shape=partialRectangle;connectable=0;fillColor=none;top=0;left=0;bottom=0;right=0;editable=1;overflow=hidden;" parent="DN-LTefcZSK7lFFQ5vny-16" vertex="1">
          <mxGeometry width="30" height="30" as="geometry">
            <mxRectangle width="30" height="30" as="alternateBounds" />
          </mxGeometry>
        </mxCell>
        <mxCell id="DN-LTefcZSK7lFFQ5vny-18" value="Vai trò" style="shape=partialRectangle;connectable=0;fillColor=none;top=0;left=0;bottom=0;right=0;align=left;spacingLeft=6;overflow=hidden;" parent="DN-LTefcZSK7lFFQ5vny-16" vertex="1">
          <mxGeometry x="30" width="150" height="30" as="geometry">
            <mxRectangle width="150" height="30" as="alternateBounds" />
          </mxGeometry>
        </mxCell>
        <mxCell id="DN-LTefcZSK7lFFQ5vny-19" value="" style="shape=partialRectangle;collapsible=0;dropTarget=0;pointerEvents=0;fillColor=none;top=0;left=0;bottom=0;right=0;points=[[0,0.5],[1,0.5]];portConstraint=eastwest;" parent="laPyxiT6xSJ42g8x2N14-83" vertex="1">
          <mxGeometry y="300" width="180" height="30" as="geometry" />
        </mxCell>
        <mxCell id="DN-LTefcZSK7lFFQ5vny-20" value="" style="shape=partialRectangle;connectable=0;fillColor=none;top=0;left=0;bottom=0;right=0;editable=1;overflow=hidden;" parent="DN-LTefcZSK7lFFQ5vny-19" vertex="1">
          <mxGeometry width="30" height="30" as="geometry">
            <mxRectangle width="30" height="30" as="alternateBounds" />
          </mxGeometry>
        </mxCell>
        <mxCell id="DN-LTefcZSK7lFFQ5vny-21" value="Số điện thoại" style="shape=partialRectangle;connectable=0;fillColor=none;top=0;left=0;bottom=0;right=0;align=left;spacingLeft=6;overflow=hidden;" parent="DN-LTefcZSK7lFFQ5vny-19" vertex="1">
          <mxGeometry x="30" width="150" height="30" as="geometry">
            <mxRectangle width="150" height="30" as="alternateBounds" />
          </mxGeometry>
        </mxCell>
        <mxCell id="laPyxiT6xSJ42g8x2N14-105" value="Đơn hàng" style="shape=table;startSize=30;container=1;collapsible=1;childLayout=tableLayout;fixedRows=1;rowLines=0;fontStyle=1;align=center;resizeLast=1;fillColor=#dae8fc;strokeColor=#6c8ebf;" parent="1" vertex="1">
          <mxGeometry x="-530" y="250" width="207" height="320" as="geometry" />
        </mxCell>
        <mxCell id="laPyxiT6xSJ42g8x2N14-109" value="" style="shape=partialRectangle;collapsible=0;dropTarget=0;pointerEvents=0;fillColor=none;top=0;left=0;bottom=1;right=0;points=[[0,0.5],[1,0.5]];portConstraint=eastwest;" parent="laPyxiT6xSJ42g8x2N14-105" vertex="1">
          <mxGeometry y="30" width="207" height="30" as="geometry" />
        </mxCell>
        <mxCell id="laPyxiT6xSJ42g8x2N14-110" value="PK" style="shape=partialRectangle;connectable=0;fillColor=none;top=0;left=0;bottom=0;right=0;fontStyle=1;overflow=hidden;" parent="laPyxiT6xSJ42g8x2N14-109" vertex="1">
          <mxGeometry width="53" height="30" as="geometry">
            <mxRectangle width="53" height="30" as="alternateBounds" />
          </mxGeometry>
        </mxCell>
        <mxCell id="laPyxiT6xSJ42g8x2N14-111" value="Mã hoá đơn" style="shape=partialRectangle;connectable=0;fillColor=none;top=0;left=0;bottom=0;right=0;align=left;spacingLeft=6;fontStyle=5;overflow=hidden;" parent="laPyxiT6xSJ42g8x2N14-109" vertex="1">
          <mxGeometry x="53" width="154" height="30" as="geometry">
            <mxRectangle width="154" height="30" as="alternateBounds" />
          </mxGeometry>
        </mxCell>
        <mxCell id="laPyxiT6xSJ42g8x2N14-112" value="" style="shape=partialRectangle;collapsible=0;dropTarget=0;pointerEvents=0;fillColor=none;top=0;left=0;bottom=0;right=0;points=[[0,0.5],[1,0.5]];portConstraint=eastwest;" parent="laPyxiT6xSJ42g8x2N14-105" vertex="1">
          <mxGeometry y="60" width="207" height="30" as="geometry" />
        </mxCell>
        <mxCell id="laPyxiT6xSJ42g8x2N14-113" value="FK" style="shape=partialRectangle;connectable=0;fillColor=none;top=0;left=0;bottom=0;right=0;editable=1;overflow=hidden;" parent="laPyxiT6xSJ42g8x2N14-112" vertex="1">
          <mxGeometry width="53" height="30" as="geometry">
            <mxRectangle width="53" height="30" as="alternateBounds" />
          </mxGeometry>
        </mxCell>
        <mxCell id="laPyxiT6xSJ42g8x2N14-114" value="Mã khách hàng" style="shape=partialRectangle;connectable=0;fillColor=none;top=0;left=0;bottom=0;right=0;align=left;spacingLeft=6;overflow=hidden;" parent="laPyxiT6xSJ42g8x2N14-112" vertex="1">
          <mxGeometry x="53" width="154" height="30" as="geometry">
            <mxRectangle width="154" height="30" as="alternateBounds" />
          </mxGeometry>
        </mxCell>
        <mxCell id="DN-LTefcZSK7lFFQ5vny-46" value="" style="shape=partialRectangle;collapsible=0;dropTarget=0;pointerEvents=0;fillColor=none;top=0;left=0;bottom=0;right=0;points=[[0,0.5],[1,0.5]];portConstraint=eastwest;" parent="laPyxiT6xSJ42g8x2N14-105" vertex="1">
          <mxGeometry y="90" width="207" height="30" as="geometry" />
        </mxCell>
        <mxCell id="DN-LTefcZSK7lFFQ5vny-47" value="" style="shape=partialRectangle;connectable=0;fillColor=none;top=0;left=0;bottom=0;right=0;editable=1;overflow=hidden;" parent="DN-LTefcZSK7lFFQ5vny-46" vertex="1">
          <mxGeometry width="53" height="30" as="geometry">
            <mxRectangle width="53" height="30" as="alternateBounds" />
          </mxGeometry>
        </mxCell>
        <mxCell id="DN-LTefcZSK7lFFQ5vny-48" value="Mã thanh toán" style="shape=partialRectangle;connectable=0;fillColor=none;top=0;left=0;bottom=0;right=0;align=left;spacingLeft=6;overflow=hidden;" parent="DN-LTefcZSK7lFFQ5vny-46" vertex="1">
          <mxGeometry x="53" width="154" height="30" as="geometry">
            <mxRectangle width="154" height="30" as="alternateBounds" />
          </mxGeometry>
        </mxCell>
        <mxCell id="laPyxiT6xSJ42g8x2N14-115" value="" style="shape=partialRectangle;collapsible=0;dropTarget=0;pointerEvents=0;fillColor=none;top=0;left=0;bottom=0;right=0;points=[[0,0.5],[1,0.5]];portConstraint=eastwest;" parent="laPyxiT6xSJ42g8x2N14-105" vertex="1">
          <mxGeometry y="120" width="207" height="30" as="geometry" />
        </mxCell>
        <mxCell id="laPyxiT6xSJ42g8x2N14-116" value="" style="shape=partialRectangle;connectable=0;fillColor=none;top=0;left=0;bottom=0;right=0;editable=1;overflow=hidden;" parent="laPyxiT6xSJ42g8x2N14-115" vertex="1">
          <mxGeometry width="53" height="30" as="geometry">
            <mxRectangle width="53" height="30" as="alternateBounds" />
          </mxGeometry>
        </mxCell>
        <mxCell id="laPyxiT6xSJ42g8x2N14-117" value="Tên khách hàng" style="shape=partialRectangle;connectable=0;fillColor=none;top=0;left=0;bottom=0;right=0;align=left;spacingLeft=6;overflow=hidden;" parent="laPyxiT6xSJ42g8x2N14-115" vertex="1">
          <mxGeometry x="53" width="154" height="30" as="geometry">
            <mxRectangle width="154" height="30" as="alternateBounds" />
          </mxGeometry>
        </mxCell>
        <mxCell id="DN-LTefcZSK7lFFQ5vny-22" value="" style="shape=partialRectangle;collapsible=0;dropTarget=0;pointerEvents=0;fillColor=none;top=0;left=0;bottom=0;right=0;points=[[0,0.5],[1,0.5]];portConstraint=eastwest;" parent="laPyxiT6xSJ42g8x2N14-105" vertex="1">
          <mxGeometry y="150" width="207" height="30" as="geometry" />
        </mxCell>
        <mxCell id="DN-LTefcZSK7lFFQ5vny-23" value="" style="shape=partialRectangle;connectable=0;fillColor=none;top=0;left=0;bottom=0;right=0;editable=1;overflow=hidden;" parent="DN-LTefcZSK7lFFQ5vny-22" vertex="1">
          <mxGeometry width="53" height="30" as="geometry">
            <mxRectangle width="53" height="30" as="alternateBounds" />
          </mxGeometry>
        </mxCell>
        <mxCell id="DN-LTefcZSK7lFFQ5vny-24" value="Địa chỉ" style="shape=partialRectangle;connectable=0;fillColor=none;top=0;left=0;bottom=0;right=0;align=left;spacingLeft=6;overflow=hidden;" parent="DN-LTefcZSK7lFFQ5vny-22" vertex="1">
          <mxGeometry x="53" width="154" height="30" as="geometry">
            <mxRectangle width="154" height="30" as="alternateBounds" />
          </mxGeometry>
        </mxCell>
        <mxCell id="DN-LTefcZSK7lFFQ5vny-28" value="" style="shape=partialRectangle;collapsible=0;dropTarget=0;pointerEvents=0;fillColor=none;top=0;left=0;bottom=0;right=0;points=[[0,0.5],[1,0.5]];portConstraint=eastwest;" parent="laPyxiT6xSJ42g8x2N14-105" vertex="1">
          <mxGeometry y="180" width="207" height="30" as="geometry" />
        </mxCell>
        <mxCell id="DN-LTefcZSK7lFFQ5vny-29" value="" style="shape=partialRectangle;connectable=0;fillColor=none;top=0;left=0;bottom=0;right=0;editable=1;overflow=hidden;" parent="DN-LTefcZSK7lFFQ5vny-28" vertex="1">
          <mxGeometry width="53" height="30" as="geometry">
            <mxRectangle width="53" height="30" as="alternateBounds" />
          </mxGeometry>
        </mxCell>
        <mxCell id="DN-LTefcZSK7lFFQ5vny-30" value="Số điện thoại" style="shape=partialRectangle;connectable=0;fillColor=none;top=0;left=0;bottom=0;right=0;align=left;spacingLeft=6;overflow=hidden;" parent="DN-LTefcZSK7lFFQ5vny-28" vertex="1">
          <mxGeometry x="53" width="154" height="30" as="geometry">
            <mxRectangle width="154" height="30" as="alternateBounds" />
          </mxGeometry>
        </mxCell>
        <mxCell id="DN-LTefcZSK7lFFQ5vny-31" value="" style="shape=partialRectangle;collapsible=0;dropTarget=0;pointerEvents=0;fillColor=none;top=0;left=0;bottom=0;right=0;points=[[0,0.5],[1,0.5]];portConstraint=eastwest;" parent="laPyxiT6xSJ42g8x2N14-105" vertex="1">
          <mxGeometry y="210" width="207" height="30" as="geometry" />
        </mxCell>
        <mxCell id="DN-LTefcZSK7lFFQ5vny-32" value="" style="shape=partialRectangle;connectable=0;fillColor=none;top=0;left=0;bottom=0;right=0;editable=1;overflow=hidden;" parent="DN-LTefcZSK7lFFQ5vny-31" vertex="1">
          <mxGeometry width="53" height="30" as="geometry">
            <mxRectangle width="53" height="30" as="alternateBounds" />
          </mxGeometry>
        </mxCell>
        <mxCell id="DN-LTefcZSK7lFFQ5vny-33" value="Ghi chú" style="shape=partialRectangle;connectable=0;fillColor=none;top=0;left=0;bottom=0;right=0;align=left;spacingLeft=6;overflow=hidden;" parent="DN-LTefcZSK7lFFQ5vny-31" vertex="1">
          <mxGeometry x="53" width="154" height="30" as="geometry">
            <mxRectangle width="154" height="30" as="alternateBounds" />
          </mxGeometry>
        </mxCell>
        <mxCell id="DN-LTefcZSK7lFFQ5vny-34" value="" style="shape=partialRectangle;collapsible=0;dropTarget=0;pointerEvents=0;fillColor=none;top=0;left=0;bottom=0;right=0;points=[[0,0.5],[1,0.5]];portConstraint=eastwest;" parent="laPyxiT6xSJ42g8x2N14-105" vertex="1">
          <mxGeometry y="240" width="207" height="30" as="geometry" />
        </mxCell>
        <mxCell id="DN-LTefcZSK7lFFQ5vny-35" value="" style="shape=partialRectangle;connectable=0;fillColor=none;top=0;left=0;bottom=0;right=0;editable=1;overflow=hidden;" parent="DN-LTefcZSK7lFFQ5vny-34" vertex="1">
          <mxGeometry width="53" height="30" as="geometry">
            <mxRectangle width="53" height="30" as="alternateBounds" />
          </mxGeometry>
        </mxCell>
        <mxCell id="DN-LTefcZSK7lFFQ5vny-36" value="Trạng thái kích hoạt" style="shape=partialRectangle;connectable=0;fillColor=none;top=0;left=0;bottom=0;right=0;align=left;spacingLeft=6;overflow=hidden;" parent="DN-LTefcZSK7lFFQ5vny-34" vertex="1">
          <mxGeometry x="53" width="154" height="30" as="geometry">
            <mxRectangle width="154" height="30" as="alternateBounds" />
          </mxGeometry>
        </mxCell>
        <mxCell id="DN-LTefcZSK7lFFQ5vny-37" value="" style="shape=partialRectangle;collapsible=0;dropTarget=0;pointerEvents=0;fillColor=none;top=0;left=0;bottom=0;right=0;points=[[0,0.5],[1,0.5]];portConstraint=eastwest;" parent="laPyxiT6xSJ42g8x2N14-105" vertex="1">
          <mxGeometry y="270" width="207" height="30" as="geometry" />
        </mxCell>
        <mxCell id="DN-LTefcZSK7lFFQ5vny-38" value="" style="shape=partialRectangle;connectable=0;fillColor=none;top=0;left=0;bottom=0;right=0;editable=1;overflow=hidden;" parent="DN-LTefcZSK7lFFQ5vny-37" vertex="1">
          <mxGeometry width="53" height="30" as="geometry">
            <mxRectangle width="53" height="30" as="alternateBounds" />
          </mxGeometry>
        </mxCell>
        <mxCell id="DN-LTefcZSK7lFFQ5vny-39" value="Ngày đặt hàng" style="shape=partialRectangle;connectable=0;fillColor=none;top=0;left=0;bottom=0;right=0;align=left;spacingLeft=6;overflow=hidden;" parent="DN-LTefcZSK7lFFQ5vny-37" vertex="1">
          <mxGeometry x="53" width="154" height="30" as="geometry">
            <mxRectangle width="154" height="30" as="alternateBounds" />
          </mxGeometry>
        </mxCell>
        <mxCell id="laPyxiT6xSJ42g8x2N14-128" value="Chi tiết đơn hàng" style="shape=table;startSize=30;container=1;collapsible=1;childLayout=tableLayout;fixedRows=1;rowLines=0;fontStyle=1;align=center;resizeLast=1;fillColor=#dae8fc;strokeColor=#6c8ebf;" parent="1" vertex="1">
          <mxGeometry x="-270" y="160" width="180" height="160" as="geometry" />
        </mxCell>
        <mxCell id="laPyxiT6xSJ42g8x2N14-129" value="" style="shape=partialRectangle;collapsible=0;dropTarget=0;pointerEvents=0;fillColor=none;top=0;left=0;bottom=0;right=0;points=[[0,0.5],[1,0.5]];portConstraint=eastwest;" parent="laPyxiT6xSJ42g8x2N14-128" vertex="1">
          <mxGeometry y="30" width="180" height="30" as="geometry" />
        </mxCell>
        <mxCell id="laPyxiT6xSJ42g8x2N14-130" value="PK,FK1" style="shape=partialRectangle;connectable=0;fillColor=none;top=0;left=0;bottom=0;right=0;fontStyle=1;overflow=hidden;" parent="laPyxiT6xSJ42g8x2N14-129" vertex="1">
          <mxGeometry width="60" height="30" as="geometry">
            <mxRectangle width="60" height="30" as="alternateBounds" />
          </mxGeometry>
        </mxCell>
        <mxCell id="laPyxiT6xSJ42g8x2N14-131" value="Mã đơn hàng" style="shape=partialRectangle;connectable=0;fillColor=none;top=0;left=0;bottom=0;right=0;align=left;spacingLeft=6;fontStyle=5;overflow=hidden;" parent="laPyxiT6xSJ42g8x2N14-129" vertex="1">
          <mxGeometry x="60" width="120" height="30" as="geometry">
            <mxRectangle width="120" height="30" as="alternateBounds" />
          </mxGeometry>
        </mxCell>
        <mxCell id="laPyxiT6xSJ42g8x2N14-132" value="" style="shape=partialRectangle;collapsible=0;dropTarget=0;pointerEvents=0;fillColor=none;top=0;left=0;bottom=1;right=0;points=[[0,0.5],[1,0.5]];portConstraint=eastwest;" parent="laPyxiT6xSJ42g8x2N14-128" vertex="1">
          <mxGeometry y="60" width="180" height="30" as="geometry" />
        </mxCell>
        <mxCell id="laPyxiT6xSJ42g8x2N14-133" value="PK,FK2" style="shape=partialRectangle;connectable=0;fillColor=none;top=0;left=0;bottom=0;right=0;fontStyle=1;overflow=hidden;" parent="laPyxiT6xSJ42g8x2N14-132" vertex="1">
          <mxGeometry width="60" height="30" as="geometry">
            <mxRectangle width="60" height="30" as="alternateBounds" />
          </mxGeometry>
        </mxCell>
        <mxCell id="laPyxiT6xSJ42g8x2N14-134" value="Mã sản phẩm" style="shape=partialRectangle;connectable=0;fillColor=none;top=0;left=0;bottom=0;right=0;align=left;spacingLeft=6;fontStyle=5;overflow=hidden;" parent="laPyxiT6xSJ42g8x2N14-132" vertex="1">
          <mxGeometry x="60" width="120" height="30" as="geometry">
            <mxRectangle width="120" height="30" as="alternateBounds" />
          </mxGeometry>
        </mxCell>
        <mxCell id="laPyxiT6xSJ42g8x2N14-135" value="" style="shape=partialRectangle;collapsible=0;dropTarget=0;pointerEvents=0;fillColor=none;top=0;left=0;bottom=0;right=0;points=[[0,0.5],[1,0.5]];portConstraint=eastwest;" parent="laPyxiT6xSJ42g8x2N14-128" vertex="1">
          <mxGeometry y="90" width="180" height="30" as="geometry" />
        </mxCell>
        <mxCell id="laPyxiT6xSJ42g8x2N14-136" value="" style="shape=partialRectangle;connectable=0;fillColor=none;top=0;left=0;bottom=0;right=0;editable=1;overflow=hidden;" parent="laPyxiT6xSJ42g8x2N14-135" vertex="1">
          <mxGeometry width="60" height="30" as="geometry">
            <mxRectangle width="60" height="30" as="alternateBounds" />
          </mxGeometry>
        </mxCell>
        <mxCell id="laPyxiT6xSJ42g8x2N14-137" value="Đơn giá" style="shape=partialRectangle;connectable=0;fillColor=none;top=0;left=0;bottom=0;right=0;align=left;spacingLeft=6;overflow=hidden;" parent="laPyxiT6xSJ42g8x2N14-135" vertex="1">
          <mxGeometry x="60" width="120" height="30" as="geometry">
            <mxRectangle width="120" height="30" as="alternateBounds" />
          </mxGeometry>
        </mxCell>
        <mxCell id="laPyxiT6xSJ42g8x2N14-138" value="" style="shape=partialRectangle;collapsible=0;dropTarget=0;pointerEvents=0;fillColor=none;top=0;left=0;bottom=0;right=0;points=[[0,0.5],[1,0.5]];portConstraint=eastwest;" parent="laPyxiT6xSJ42g8x2N14-128" vertex="1">
          <mxGeometry y="120" width="180" height="30" as="geometry" />
        </mxCell>
        <mxCell id="laPyxiT6xSJ42g8x2N14-139" value="" style="shape=partialRectangle;connectable=0;fillColor=none;top=0;left=0;bottom=0;right=0;editable=1;overflow=hidden;" parent="laPyxiT6xSJ42g8x2N14-138" vertex="1">
          <mxGeometry width="60" height="30" as="geometry">
            <mxRectangle width="60" height="30" as="alternateBounds" />
          </mxGeometry>
        </mxCell>
        <mxCell id="laPyxiT6xSJ42g8x2N14-140" value="Số lượng mua" style="shape=partialRectangle;connectable=0;fillColor=none;top=0;left=0;bottom=0;right=0;align=left;spacingLeft=6;overflow=hidden;" parent="laPyxiT6xSJ42g8x2N14-138" vertex="1">
          <mxGeometry x="60" width="120" height="30" as="geometry">
            <mxRectangle width="120" height="30" as="alternateBounds" />
          </mxGeometry>
        </mxCell>
        <mxCell id="laPyxiT6xSJ42g8x2N14-141" value="Bình luận" style="shape=table;startSize=30;container=1;collapsible=1;childLayout=tableLayout;fixedRows=1;rowLines=0;fontStyle=1;align=center;resizeLast=1;fillColor=#dae8fc;strokeColor=#6c8ebf;" parent="1" vertex="1">
          <mxGeometry x="-516.5" y="10" width="180" height="180" as="geometry" />
        </mxCell>
        <mxCell id="laPyxiT6xSJ42g8x2N14-142" value="" style="shape=partialRectangle;collapsible=0;dropTarget=0;pointerEvents=0;fillColor=none;top=0;left=0;bottom=1;right=0;points=[[0,0.5],[1,0.5]];portConstraint=eastwest;" parent="laPyxiT6xSJ42g8x2N14-141" vertex="1">
          <mxGeometry y="30" width="180" height="30" as="geometry" />
        </mxCell>
        <mxCell id="laPyxiT6xSJ42g8x2N14-143" value="PK" style="shape=partialRectangle;connectable=0;fillColor=none;top=0;left=0;bottom=0;right=0;fontStyle=1;overflow=hidden;" parent="laPyxiT6xSJ42g8x2N14-142" vertex="1">
          <mxGeometry width="30" height="30" as="geometry">
            <mxRectangle width="30" height="30" as="alternateBounds" />
          </mxGeometry>
        </mxCell>
        <mxCell id="laPyxiT6xSJ42g8x2N14-144" value="Mã bình luận" style="shape=partialRectangle;connectable=0;fillColor=none;top=0;left=0;bottom=0;right=0;align=left;spacingLeft=6;fontStyle=5;overflow=hidden;" parent="laPyxiT6xSJ42g8x2N14-142" vertex="1">
          <mxGeometry x="30" width="150" height="30" as="geometry">
            <mxRectangle width="150" height="30" as="alternateBounds" />
          </mxGeometry>
        </mxCell>
        <mxCell id="laPyxiT6xSJ42g8x2N14-145" value="" style="shape=partialRectangle;collapsible=0;dropTarget=0;pointerEvents=0;fillColor=none;top=0;left=0;bottom=0;right=0;points=[[0,0.5],[1,0.5]];portConstraint=eastwest;" parent="laPyxiT6xSJ42g8x2N14-141" vertex="1">
          <mxGeometry y="60" width="180" height="30" as="geometry" />
        </mxCell>
        <mxCell id="laPyxiT6xSJ42g8x2N14-146" value="FK" style="shape=partialRectangle;connectable=0;fillColor=none;top=0;left=0;bottom=0;right=0;editable=1;overflow=hidden;" parent="laPyxiT6xSJ42g8x2N14-145" vertex="1">
          <mxGeometry width="30" height="30" as="geometry">
            <mxRectangle width="30" height="30" as="alternateBounds" />
          </mxGeometry>
        </mxCell>
        <mxCell id="laPyxiT6xSJ42g8x2N14-147" value="Mã khách hàng" style="shape=partialRectangle;connectable=0;fillColor=none;top=0;left=0;bottom=0;right=0;align=left;spacingLeft=6;overflow=hidden;" parent="laPyxiT6xSJ42g8x2N14-145" vertex="1">
          <mxGeometry x="30" width="150" height="30" as="geometry">
            <mxRectangle width="150" height="30" as="alternateBounds" />
          </mxGeometry>
        </mxCell>
        <mxCell id="DN-LTefcZSK7lFFQ5vny-161" value="" style="shape=partialRectangle;collapsible=0;dropTarget=0;pointerEvents=0;fillColor=none;top=0;left=0;bottom=0;right=0;points=[[0,0.5],[1,0.5]];portConstraint=eastwest;" parent="laPyxiT6xSJ42g8x2N14-141" vertex="1">
          <mxGeometry y="90" width="180" height="30" as="geometry" />
        </mxCell>
        <mxCell id="DN-LTefcZSK7lFFQ5vny-162" value="FK" style="shape=partialRectangle;connectable=0;fillColor=none;top=0;left=0;bottom=0;right=0;editable=1;overflow=hidden;" parent="DN-LTefcZSK7lFFQ5vny-161" vertex="1">
          <mxGeometry width="30" height="30" as="geometry">
            <mxRectangle width="30" height="30" as="alternateBounds" />
          </mxGeometry>
        </mxCell>
        <mxCell id="DN-LTefcZSK7lFFQ5vny-163" value="Mã sản phẩm" style="shape=partialRectangle;connectable=0;fillColor=none;top=0;left=0;bottom=0;right=0;align=left;spacingLeft=6;overflow=hidden;" parent="DN-LTefcZSK7lFFQ5vny-161" vertex="1">
          <mxGeometry x="30" width="150" height="30" as="geometry">
            <mxRectangle width="150" height="30" as="alternateBounds" />
          </mxGeometry>
        </mxCell>
        <mxCell id="DN-LTefcZSK7lFFQ5vny-139" value="" style="shape=partialRectangle;collapsible=0;dropTarget=0;pointerEvents=0;fillColor=none;top=0;left=0;bottom=0;right=0;points=[[0,0.5],[1,0.5]];portConstraint=eastwest;" parent="laPyxiT6xSJ42g8x2N14-141" vertex="1">
          <mxGeometry y="120" width="180" height="30" as="geometry" />
        </mxCell>
        <mxCell id="DN-LTefcZSK7lFFQ5vny-140" value="" style="shape=partialRectangle;connectable=0;fillColor=none;top=0;left=0;bottom=0;right=0;editable=1;overflow=hidden;" parent="DN-LTefcZSK7lFFQ5vny-139" vertex="1">
          <mxGeometry width="30" height="30" as="geometry">
            <mxRectangle width="30" height="30" as="alternateBounds" />
          </mxGeometry>
        </mxCell>
        <mxCell id="DN-LTefcZSK7lFFQ5vny-141" value="Nội dung" style="shape=partialRectangle;connectable=0;fillColor=none;top=0;left=0;bottom=0;right=0;align=left;spacingLeft=6;overflow=hidden;" parent="DN-LTefcZSK7lFFQ5vny-139" vertex="1">
          <mxGeometry x="30" width="150" height="30" as="geometry">
            <mxRectangle width="150" height="30" as="alternateBounds" />
          </mxGeometry>
        </mxCell>
        <mxCell id="DN-LTefcZSK7lFFQ5vny-1" value="" style="shape=partialRectangle;collapsible=0;dropTarget=0;pointerEvents=0;fillColor=none;top=0;left=0;bottom=0;right=0;points=[[0,0.5],[1,0.5]];portConstraint=eastwest;" parent="laPyxiT6xSJ42g8x2N14-141" vertex="1">
          <mxGeometry y="150" width="180" height="30" as="geometry" />
        </mxCell>
        <mxCell id="DN-LTefcZSK7lFFQ5vny-2" value="" style="shape=partialRectangle;connectable=0;fillColor=none;top=0;left=0;bottom=0;right=0;editable=1;overflow=hidden;" parent="DN-LTefcZSK7lFFQ5vny-1" vertex="1">
          <mxGeometry width="30" height="30" as="geometry">
            <mxRectangle width="30" height="30" as="alternateBounds" />
          </mxGeometry>
        </mxCell>
        <mxCell id="DN-LTefcZSK7lFFQ5vny-3" value="Thời gian gửi bình luận" style="shape=partialRectangle;connectable=0;fillColor=none;top=0;left=0;bottom=0;right=0;align=left;spacingLeft=6;overflow=hidden;" parent="DN-LTefcZSK7lFFQ5vny-1" vertex="1">
          <mxGeometry x="30" width="150" height="30" as="geometry">
            <mxRectangle width="150" height="30" as="alternateBounds" />
          </mxGeometry>
        </mxCell>
        <mxCell id="xLdjuohVFFDIh-7ZK9ph-4" value="" style="endArrow=none;html=1;rounded=0;entryX=0;entryY=0.5;entryDx=0;entryDy=0;startArrow=none;" parent="1" edge="1">
          <mxGeometry width="50" height="50" relative="1" as="geometry">
            <mxPoint x="-530" y="556" as="sourcePoint" />
            <mxPoint x="-530" y="558" as="targetPoint" />
          </mxGeometry>
        </mxCell>
        <mxCell id="xLdjuohVFFDIh-7ZK9ph-9" value="" style="endArrow=none;html=1;rounded=0;startArrow=none;" parent="1" edge="1">
          <mxGeometry width="50" height="50" relative="1" as="geometry">
            <mxPoint x="159.99999999999955" y="570" as="sourcePoint" />
            <mxPoint x="160" y="570" as="targetPoint" />
          </mxGeometry>
        </mxCell>
        <mxCell id="xLdjuohVFFDIh-7ZK9ph-15" value="" style="endArrow=none;html=1;rounded=0;startArrow=none;" parent="1" edge="1">
          <mxGeometry width="50" height="50" relative="1" as="geometry">
            <mxPoint x="149.99999999999955" y="429" as="sourcePoint" />
            <mxPoint x="150" y="430" as="targetPoint" />
          </mxGeometry>
        </mxCell>
        <mxCell id="xLdjuohVFFDIh-7ZK9ph-26" value="" style="endArrow=none;html=1;rounded=0;entryDx=0;entryDy=0;" parent="1" edge="1">
          <mxGeometry width="50" height="50" relative="1" as="geometry">
            <mxPoint x="-619" y="200" as="sourcePoint" />
            <mxPoint x="-620" y="199.9999999999999" as="targetPoint" />
          </mxGeometry>
        </mxCell>
        <mxCell id="xLdjuohVFFDIh-7ZK9ph-38" value="" style="endArrow=none;html=1;rounded=0;" parent="1" edge="1">
          <mxGeometry width="50" height="50" relative="1" as="geometry">
            <mxPoint x="-100" y="325" as="sourcePoint" />
            <mxPoint x="-100.00000000000045" y="326" as="targetPoint" />
          </mxGeometry>
        </mxCell>
        <mxCell id="DN-LTefcZSK7lFFQ5vny-130" value="" style="edgeStyle=entityRelationEdgeStyle;fontSize=12;html=1;endArrow=ERmandOne;startArrow=ERmandOne;rounded=0;entryX=0;entryY=0.5;entryDx=0;entryDy=0;exitX=1;exitY=0.5;exitDx=0;exitDy=0;" parent="1" source="laPyxiT6xSJ42g8x2N14-132" target="laPyxiT6xSJ42g8x2N14-41" edge="1">
          <mxGeometry width="100" height="100" relative="1" as="geometry">
            <mxPoint x="-230" y="470" as="sourcePoint" />
            <mxPoint x="-130" y="370" as="targetPoint" />
          </mxGeometry>
        </mxCell>
        <mxCell id="DN-LTefcZSK7lFFQ5vny-134" value="" style="edgeStyle=entityRelationEdgeStyle;fontSize=12;html=1;endArrow=ERmandOne;startArrow=ERmandOne;rounded=0;exitX=1;exitY=0.5;exitDx=0;exitDy=0;entryX=0;entryY=0.5;entryDx=0;entryDy=0;" parent="1" source="laPyxiT6xSJ42g8x2N14-21" target="laPyxiT6xSJ42g8x2N14-41" edge="1">
          <mxGeometry width="100" height="100" relative="1" as="geometry">
            <mxPoint x="-230" y="470" as="sourcePoint" />
            <mxPoint x="-130" y="370" as="targetPoint" />
          </mxGeometry>
        </mxCell>
        <mxCell id="DN-LTefcZSK7lFFQ5vny-135" value="" style="edgeStyle=entityRelationEdgeStyle;fontSize=12;html=1;endArrow=ERzeroToMany;startArrow=ERmandOne;rounded=0;entryX=1;entryY=0.5;entryDx=0;entryDy=0;exitX=1;exitY=0.5;exitDx=0;exitDy=0;" parent="1" source="laPyxiT6xSJ42g8x2N14-28" target="laPyxiT6xSJ42g8x2N14-44" edge="1">
          <mxGeometry width="100" height="100" relative="1" as="geometry">
            <mxPoint x="-230" y="270" as="sourcePoint" />
            <mxPoint x="-130" y="170" as="targetPoint" />
          </mxGeometry>
        </mxCell>
        <mxCell id="DN-LTefcZSK7lFFQ5vny-136" value="" style="edgeStyle=entityRelationEdgeStyle;fontSize=12;html=1;endArrow=ERmandOne;startArrow=ERmandOne;rounded=0;exitX=1;exitY=0.5;exitDx=0;exitDy=0;entryX=0;entryY=0.5;entryDx=0;entryDy=0;" parent="1" source="laPyxiT6xSJ42g8x2N14-109" target="laPyxiT6xSJ42g8x2N14-129" edge="1">
          <mxGeometry width="100" height="100" relative="1" as="geometry">
            <mxPoint x="-230" y="470" as="sourcePoint" />
            <mxPoint x="-130" y="370" as="targetPoint" />
          </mxGeometry>
        </mxCell>
        <mxCell id="DN-LTefcZSK7lFFQ5vny-137" value="" style="edgeStyle=entityRelationEdgeStyle;fontSize=12;html=1;endArrow=ERzeroToMany;startArrow=ERmandOne;rounded=0;entryX=0;entryY=0.5;entryDx=0;entryDy=0;exitX=1;exitY=0.5;exitDx=0;exitDy=0;" parent="1" source="laPyxiT6xSJ42g8x2N14-84" target="laPyxiT6xSJ42g8x2N14-112" edge="1">
          <mxGeometry width="100" height="100" relative="1" as="geometry">
            <mxPoint x="-390" y="370" as="sourcePoint" />
            <mxPoint x="-290" y="270" as="targetPoint" />
          </mxGeometry>
        </mxCell>
        <mxCell id="DN-LTefcZSK7lFFQ5vny-138" value="" style="edgeStyle=entityRelationEdgeStyle;fontSize=12;html=1;endArrow=ERzeroToMany;startArrow=ERmandOne;rounded=0;exitX=1;exitY=0.5;exitDx=0;exitDy=0;entryX=0;entryY=0.5;entryDx=0;entryDy=0;" parent="1" source="laPyxiT6xSJ42g8x2N14-84" target="laPyxiT6xSJ42g8x2N14-145" edge="1">
          <mxGeometry width="100" height="100" relative="1" as="geometry">
            <mxPoint x="-390" y="370" as="sourcePoint" />
            <mxPoint x="-390" y="200" as="targetPoint" />
          </mxGeometry>
        </mxCell>
        <mxCell id="DN-LTefcZSK7lFFQ5vny-168" value="" style="edgeStyle=entityRelationEdgeStyle;fontSize=12;html=1;endArrow=ERzeroToMany;endFill=1;startArrow=ERzeroToMany;rounded=0;exitX=0;exitY=0.5;exitDx=0;exitDy=0;" parent="1" source="laPyxiT6xSJ42g8x2N14-41" target="DN-LTefcZSK7lFFQ5vny-161" edge="1">
          <mxGeometry width="100" height="100" relative="1" as="geometry">
            <mxPoint x="-140" y="260" as="sourcePoint" />
            <mxPoint x="-40" y="160" as="targetPoint" />
          </mxGeometry>
        </mxCell>
      </root>
    </mxGraphModel>
  </diagram>
</mxfile>
